<?xml version="1.0" standalone="no"?>
<!DOCTYPE svg PUBLIC "-//W3C//DTD SVG 20010904//EN"
 "http://www.w3.org/TR/2001/REC-SVG-20010904/DTD/svg10.dtd">
<svg version="1.0" xmlns="http://www.w3.org/2000/svg"
 width="188.000000pt" height="167.000000pt" viewBox="0 0 188.000000 167.000000"
 preserveAspectRatio="xMidYMid meet">
<metadata>
Created by potrace 1.16, written by Peter Selinger 2001-2019
</metadata>
<g transform="translate(0.000000,167.000000) scale(0.100000,-0.100000)"
fill="#000000" stroke="none">
<path d="M40 840 l0 -790 110 0 c107 0 110 1 111 23 1 12 2 308 3 659 0 350 4
639 8 643 3 4 98 -58 210 -136 111 -78 260 -183 331 -232 l127 -88 128 88 c70
49 218 153 330 231 111 79 207 140 212 137 6 -4 10 -210 9 -558 0 -304 0 -600
1 -659 l0 -108 110 0 110 0 0 790 0 790 -139 0 -138 0 -306 -215 c-169 -118
-311 -215 -317 -215 -9 0 -562 383 -601 416 -11 10 -52 14 -157 14 l-142 0 0
-790z"/>
<path d="M1280 883 c-122 -87 -117 -75 -115 -272 1 -67 0 -121 -2 -121 -2 0
-151 104 -333 230 -181 127 -331 230 -334 230 -3 0 -6 -200 -6 -445 0 -245 3
-445 6 -445 3 0 52 32 110 72 99 68 104 74 104 107 1 20 1 91 1 159 0 67 3
122 6 122 5 0 449 -308 593 -412 l80 -58 0 455 c0 250 -1 455 -2 454 -2 -1
-50 -35 -108 -76z"/>
</g>
</svg>
