<?xml version="1.0" standalone="no"?>
<!DOCTYPE svg PUBLIC "-//W3C//DTD SVG 20010904//EN"
 "http://www.w3.org/TR/2001/REC-SVG-20010904/DTD/svg10.dtd">
<svg version="1.0" xmlns="http://www.w3.org/2000/svg"
 width="480.000000pt" height="480.000000pt" viewBox="0 0 480.000000 480.000000"
 preserveAspectRatio="xMidYMid meet">
<metadata>
Created by potrace 1.16, written by Peter Selinger 2001-2019
</metadata>
<g transform="translate(0.000000,480.000000) scale(0.100000,-0.100000)"
fill="#000000" stroke="none">
<path d="M2315 4488 c-38 -23 -86 -51 -105 -63 -19 -12 -69 -41 -110 -65 -76
-44 -110 -64 -213 -127 l-58 -35 78 -45 c43 -25 94 -56 113 -68 19 -12 89 -54
155 -92 66 -39 183 -108 260 -154 77 -45 169 -99 205 -120 128 -75 209 -68
-817 -69 l-922 0 -183 -108 c-101 -60 -235 -140 -300 -178 -64 -38 -115 -71
-113 -75 3 -3 42 -27 87 -54 116 -67 466 -273 508 -300 19 -12 91 -55 160 -95
69 -40 141 -83 160 -95 19 -12 100 -60 180 -107 316 -185 497 -292 530 -313
19 -12 114 -68 210 -125 96 -56 192 -113 212 -126 21 -13 42 -24 48 -24 6 0
27 11 48 24 20 13 116 70 212 126 96 57 191 113 210 126 19 12 47 28 63 35 15
7 27 16 27 20 0 12 -54 49 -165 114 -55 32 -172 101 -260 153 -88 52 -214 126
-280 165 -152 89 -185 110 -185 120 0 4 414 7 920 7 l920 0 73 43 c39 24 167
99 282 167 116 68 213 126 218 130 9 7 -25 29 -263 170 -96 57 -218 129 -270
160 -103 62 -376 223 -645 383 -93 55 -186 110 -205 122 -19 12 -111 67 -205
122 -93 56 -243 144 -331 197 -89 53 -166 96 -170 96 -5 0 -40 -19 -79 -42z"/>
<path d="M1607 3978 c-4 -66 -4 -124 -1 -129 3 -5 103 -9 222 -9 130 0 212 4
206 9 -5 5 -61 40 -124 77 -63 37 -140 82 -170 100 -30 18 -71 42 -91 53 l-36
20 -6 -121z"/>
<path d="M200 1876 l0 -1244 92 -52 c51 -29 113 -65 138 -80 25 -15 90 -53
145 -85 55 -32 121 -71 146 -86 25 -16 49 -29 52 -29 4 0 8 405 9 899 l3 900
80 -48 c44 -26 136 -80 205 -121 69 -40 141 -83 160 -95 19 -12 100 -60 180
-107 241 -141 489 -288 590 -348 246 -148 390 -230 401 -230 6 0 72 37 148 81
75 45 190 113 256 152 66 38 136 80 155 92 19 12 89 54 155 92 66 39 206 121
310 183 105 62 244 144 310 183 66 39 156 92 200 118 l80 48 3 -900 c1 -494 5
-899 9 -899 3 0 27 13 52 29 25 15 91 54 146 86 55 32 120 70 145 85 25 15 87
51 137 80 l93 52 0 1244 c0 684 -2 1244 -4 1244 -5 0 -205 -117 -266 -155 -19
-12 -91 -55 -160 -95 -69 -40 -141 -83 -160 -95 -19 -12 -102 -62 -185 -110
-292 -171 -490 -288 -525 -310 -19 -12 -89 -54 -155 -92 -272 -160 -402 -237
-445 -263 -198 -119 -288 -170 -300 -170 -12 0 -98 47 -190 105 -19 12 -91 55
-160 95 -69 41 -156 92 -195 115 -38 23 -126 74 -195 115 -69 40 -141 83 -160
95 -35 22 -233 139 -525 310 -82 48 -166 98 -185 110 -19 12 -91 55 -160 95
-69 40 -141 83 -160 95 -61 38 -261 155 -266 155 -2 0 -4 -560 -4 -1244z"/>
<path d="M2817 2712 c17 -15 92 -62 165 -105 73 -43 145 -85 159 -94 24 -15
28 -14 65 9 38 25 310 185 349 206 15 9 -84 11 -375 11 l-395 0 32 -27z"/>
</g>
</svg>
